{"accessors" : [{"bufferView" : 0, "byteOffset" : 0, "componentType" : 5125, "count" : 276732, "type" : "SCALAR", "max" : [82852], "min" : [0]}, {"bufferView" : 1, "byteOffset" : 0, "componentType" : 5126, "count" : 82853, "type" : "VEC3", "max" : [3.2236149311065674, 6.520228862762451, 1.8037128448486328], "min" : [-3.2236149311065674, -2.885833978652954, -2.1713950634002686], "name" : "POSITION"}, {"bufferView" : 1, "byteOffset" : 12, "componentType" : 5126, "count" : 82853, "type" : "VEC3", "max" : [1.0000044107437134, 1.0000044107437134, 1.0000044107437134], "min" : [-1.0000044107437134, -1.0000044107437134, -1.0000044107437134], "name" : "NORMAL"}, {"bufferView" : 1, "byteOffset" : 24, "componentType" : 5126, "count" : 82853, "type" : "VEC2", "max" : [0.9919993877410889, 0.9956365823745728], "min" : [0.005236208438873291, 0.022052764892578125], "name" : "TEXCOORD_0"}, {"bufferView" : 0, "byteOffset" : 1106928, "componentType" : 5125, "count" : 258378, "type" : "SCALAR", "max" : [82133], "min" : [0]}, {"bufferView" : 2, "byteOffset" : 0, "componentType" : 5126, "count" : 82134, "type" : "VEC3", "max" : [4.741334915161133, 6.124826908111572, 1.7021290063858032], "min" : [-4.741334915161133, -2.862644910812378, -2.232887029647827], "name" : "POSITION"}, {"bufferView" : 2, "byteOffset" : 12, "componentType" : 5126, "count" : 82134, "type" : "VEC3", "max" : [1.0000044107437134, 1.0000044107437134, 1.0000044107437134], "min" : [-1.0000044107437134, -1.0000044107437134, -1.0000044107437134], "name" : "NORMAL"}, {"bufferView" : 2, "byteOffset" : 24, "componentType" : 5126, "count" : 82134, "type" : "VEC2", "max" : [0.9948326349258423, 0.998359739780426], "min" : [0.005041241645812988, 0.006267666816711426], "name" : "TEXCOORD_0"}, {"bufferView" : 0, "byteOffset" : 2140440, "componentType" : 5123, "count" : 144, "type" : "SCALAR", "max" : [77], "min" : [0]}, {"bufferView" : 3, "byteOffset" : 0, "componentType" : 5126, "count" : 78, "type" : "VEC3", "max" : [0.7471219897270203, 1.705219030380249, -1.4363296031951904], "min" : [-0.7471219897270203, 1.0052210092544556, -1.4363296031951904], "name" : "POSITION"}, {"bufferView" : 3, "byteOffset" : 12, "componentType" : 5126, "count" : 78, "type" : "VEC3", "max" : [8.083414968496072E-07, 0, -1.0000042915344238], "min" : [-8.841237786327838E-07, 0, -1.0000044107437134], "name" : "NORMAL"}, {"bufferView" : 3, "byteOffset" : 24, "componentType" : 5126, "count" : 78, "type" : "VEC2", "max" : [0.9925198554992676, 0.7443295121192932], "min" : [0.007480144500732422, 0.27306222915649414], "name" : "TEXCOORD_0"}, {"bufferView" : 0, "byteOffset" : 2140728, "componentType" : 5123, "count" : 324, "type" : "SCALAR", "max" : [69], "min" : [0]}, {"bufferView" : 4, "byteOffset" : 0, "componentType" : 5126, "count" : 70, "type" : "VEC3", "max" : [-0.3768274486064911, 5.200882911682129, -0.39092597365379333], "min" : [-1.199129343032837, 4.66493558883667, -0.6848586797714233], "name" : "POSITION"}, {"bufferView" : 4, "byteOffset" : 12, "componentType" : 5126, "count" : 70, "type" : "VEC3", "max" : [-0.21618883311748505, 0.9763555526733398, 0.43547341227531433], "min" : [-0.8102948665618896, 0.5859360694885254, -0.4338560402393341], "name" : "NORMAL"}, {"bufferView" : 4, "byteOffset" : 24, "componentType" : 5126, "count" : 70, "type" : "VEC2", "max" : [0.9957094192504883, 0.64979088306427], "min" : [0.006065428256988525, 0.35020911693573], "name" : "TEXCOORD_0"}], "asset" : {"generator" : "Aspose.3D 24.6.0", "version" : "2.0"}, "buffers" : [{"uri" : "buffer.bin", "byteLength" : 7425716}], "bufferViews" : [{"buffer" : 0, "byteOffset" : 0, "byteLength" : 2141376, "target" : 34963}, {"buffer" : 0, "byteOffset" : 2141380, "byteLength" : 2651296, "byteStride" : 32, "target" : 34962}, {"buffer" : 0, "byteOffset" : 4792680, "byteLength" : 2628288, "byteStride" : 32, "target" : 34962}, {"buffer" : 0, "byteOffset" : 7420972, "byteLength" : 2496, "byteStride" : 32, "target" : 34962}, {"buffer" : 0, "byteOffset" : 7423472, "byteLength" : 2240, "byteStride" : 32, "target" : 34962}], "images" : [{"uri" : "D:\\Descargas\\models\\models\\Maleta_Texturas\\Base1\\Normal_<UDIM>.png"}, {"uri" : "D:\\Descargas\\models\\models\\Maleta_Texturas\\Base1\\Base_color_1001.png"}, {"uri" : "D:\\Descargas\\models\\models\\Maleta_Texturas\\Base2\\Normal_<UDIM>.png"}, {"uri" : "D:\\Descargas\\models\\models\\Maleta_Texturas\\Base2\\Base_color_1002.png"}], "materials" : [{"name" : "Basei1", "pbrMetallicRoughness" : {"baseColorFactor" : [1, 1, 1, 1], "baseColorTexture" : {"index" : 1, "texCoord" : 0}, "metallicFactor" : 1, "roughnessFactor" : 1}, "normalTexture" : {"index" : 0, "texCoord" : 0, "scale" : 1}, "emissiveFactor" : [0, 0, 0], "alphaMode" : "OPAQUE", "doubleSided" : false}, {"name" : "Base_2", "pbrMetallicRoughness" : {"baseColorFactor" : [1, 1, 1, 1], "baseColorTexture" : {"index" : 3, "texCoord" : 0}, "metallicFactor" : 1, "roughnessFactor" : 1}, "normalTexture" : {"index" : 2, "texCoord" : 0, "scale" : 1}, "emissiveFactor" : [0, 0, 0], "alphaMode" : "OPAQUE", "doubleSided" : false}, {"name" : "P_Back1", "pbrMetallicRoughness" : {"baseColorFactor" : [1, 1, 1, 1], "metallicFactor" : 1, "roughnessFactor" : 1}, "emissiveFactor" : [0, 0, 0], "alphaMode" : "OPAQUE", "doubleSided" : false}, {"name" : "P_Handle1", "pbrMetallicRoughness" : {"baseColorFactor" : [1, 1, 1, 1], "metallicFactor" : 1, "roughnessFactor" : 1}, "emissiveFactor" : [0, 0, 0], "alphaMode" : "OPAQUE", "doubleSided" : false}], "meshes" : [{"primitives" : [{"attributes" : {"POSITION" : 1, "NORMAL" : 2, "TEXCOORD_0" : 3}, "indices" : 0, "material" : 0, "mode" : 4}], "name" : "Mesh.001"}, {"primitives" : [{"attributes" : {"POSITION" : 5, "NORMAL" : 6, "TEXCOORD_0" : 7}, "indices" : 4, "material" : 1, "mode" : 4}], "name" : "Mesh"}, {"primitives" : [{"attributes" : {"POSITION" : 9, "NORMAL" : 10, "TEXCOORD_0" : 11}, "indices" : 8, "material" : 2, "mode" : 4}], "name" : "Mesh.002"}, {"primitives" : [{"attributes" : {"POSITION" : 13, "NORMAL" : 14, "TEXCOORD_0" : 15}, "indices" : 12, "material" : 3, "mode" : 4}], "name" : "Mesh.003"}], "nodes" : [{"matrix" : [1, 0, 0, 0, 0, 0.9999999999999971, -7.54978941586159E-08, 0, 0, 7.54978941586159E-08, 0.9999999999999971, 0, 0, -9.379899523764834E-09, -7.943221902451114E-08, 1], "mesh" : 0, "name" : "Maleta_cohete_base_1"}, {"matrix" : [1, 0, 0, 0, 0, 0.9999999999999971, -7.54978941586159E-08, 0, 0, 7.54978941586159E-08, 0.9999999999999971, 0, 0, -9.379899523764834E-09, -7.943221902451114E-08, 1], "mesh" : 1, "name" : "Maleta_cohete_base_2"}, {"matrix" : [1, 0, 0, 0, 0, 0.9999999999999971, -7.54978941586159E-08, 0, 0, 7.54978941586159E-08, 0.9999999999999971, 0, 0, -9.379899523764834E-09, -7.943221902451114E-08, 1], "mesh" : 2, "name" : "P_Back"}, {"matrix" : [1, 0, 0, 0, 0, 0.9999999999999971, -7.54978941586159E-08, 0, 0, 7.54978941586159E-08, 0.9999999999999971, 0, 0, -9.379899523764834E-09, -7.943221902451114E-08, 1], "mesh" : 3, "name" : "P_handle"}], "samplers" : [{"magFilter" : 9729, "minFilter" : 9729, "wrapS" : 10497, "wrapT" : 10497}, {"magFilter" : 9729, "minFilter" : 9729, "wrapS" : 10497, "wrapT" : 10497}, {"magFilter" : 9729, "minFilter" : 9729, "wrapS" : 10497, "wrapT" : 10497}, {"magFilter" : 9729, "minFilter" : 9729, "wrapS" : 10497, "wrapT" : 10497}], "scene" : 0, "scenes" : [{"nodes" : [0, 1, 2, 3]}], "textures" : [{"sampler" : 0, "source" : 0, "name" : "normalmap_texture"}, {"sampler" : 1, "source" : 1, "name" : "base_color_texture"}, {"sampler" : 2, "source" : 2, "name" : "normalmap_texture"}, {"sampler" : 3, "source" : 3, "name" : "base_color_texture"}]}